<?xml version="1.0" standalone="no"?>
<!DOCTYPE svg PUBLIC "-//W3C//DTD SVG 20010904//EN"
 "http://www.w3.org/TR/2001/REC-SVG-20010904/DTD/svg10.dtd">
<svg version="1.0" xmlns="http://www.w3.org/2000/svg"
 width="556.000000pt" height="556.000000pt" viewBox="0 0 556.000000 556.000000"
 preserveAspectRatio="xMidYMid meet">
<metadata>
Created by potrace 1.14, written by Peter Selinger 2001-2017
</metadata>
<g transform="translate(0.000000,556.000000) scale(0.100000,-0.100000)"
fill="#000000" stroke="none">
<path d="M4776 5165 c-82 -21 -192 -76 -248 -125 -81 -70 -160 -208 -183 -320
-14 -64 -14 -267 -1 -317 7 -26 33 -91 58 -143 74 -154 148 -350 163 -432 3
-12 7 -34 10 -48 6 -26 11 -53 21 -110 6 -33 5 -34 -13 -19 -10 9 -31 27 -47
40 -16 13 -34 29 -40 35 -43 40 -238 167 -275 179 -12 3 -21 11 -21 16 0 5 -3
8 -7 7 -5 -1 -30 8 -58 21 -72 33 -229 90 -283 102 -93 21 -189 30 -307 30
-94 -1 -111 -2 -176 -16 -21 -5 -31 1 -53 30 -31 40 -36 38 76 37 57 -1 69 2
78 18 15 28 6 41 -99 144 -49 49 -88 93 -85 97 2 4 33 -1 68 -11 89 -25 99
-11 39 55 -109 121 -233 303 -254 373 -7 23 -13 42 -15 42 -1 0 -49 -46 -107
-102 -57 -57 -124 -120 -148 -140 -24 -20 -40 -40 -37 -44 8 -7 72 -14 173
-18 76 -3 80 -7 44 -57 -39 -55 -135 -129 -234 -179 -51 -26 -91 -57 -84 -64
3 -4 59 -8 125 -10 65 -3 125 -5 132 -5 16 -1 9 -14 -36 -69 -75 -91 -101
-110 -314 -226 l-66 -36 14 62 c35 148 37 249 10 370 -23 101 -42 106 -176 46
-103 -46 -127 -59 -223 -124 l-90 -61 -53 31 c-50 29 -55 36 -75 96 -67 200
-152 377 -238 491 -95 125 -179 189 -193 147 -5 -16 3 -230 14 -353 2 -19 -13
-168 -17 -175 -2 -4 -7 -31 -10 -61 -7 -62 -10 -66 -90 -109 -137 -74 -292
-222 -336 -320 -22 -48 -103 -136 -131 -143 -13 -3 -48 -14 -78 -25 -30 -11
-109 -37 -175 -57 -66 -21 -127 -40 -135 -43 -8 -3 -17 -6 -20 -6 -3 -1 -11
-5 -17 -9 -17 -11 -48 -17 -107 -22 -51 -5 -95 -27 -97 -48 0 -6 -3 -33 -5
-59 -5 -54 30 -145 64 -170 10 -7 26 -36 36 -64 21 -66 76 -114 147 -130 10
-2 29 -6 41 -9 28 -6 162 -16 238 -18 64 -2 70 -9 63 -82 -3 -35 -18 -75 -51
-135 -26 -47 -50 -94 -55 -106 -7 -18 -16 -20 -95 -21 -67 -1 -107 -7 -172
-29 -47 -15 -91 -29 -99 -30 -8 -2 -26 -6 -40 -10 -14 -4 -29 -7 -33 -6 -5 1
-8 -2 -8 -8 0 -5 -15 -16 -33 -25 -28 -13 -67 -47 -120 -105 -8 -9 -22 -32
-32 -50 -10 -19 -33 -49 -51 -66 -28 -26 -34 -40 -38 -86 -3 -31 -14 -71 -25
-89 -52 -88 -76 -160 -72 -214 4 -44 44 -99 86 -119 35 -17 162 -18 2294 -17
1241 0 2266 2 2278 5 12 2 31 10 42 16 12 6 21 8 21 5 0 -8 24 12 67 55 40 40
104 173 128 270 1 3 5 12 8 20 31 73 43 326 22 440 -3 19 -8 44 -10 55 -2 11
-8 44 -14 74 -15 76 -15 75 28 104 119 79 256 301 286 464 3 16 8 39 11 53 11
42 13 271 3 335 -12 83 -16 101 -35 159 -17 53 -130 287 -143 296 -25 18 -51
67 -51 96 0 38 33 79 56 70 114 -44 222 -68 312 -69 112 -2 148 10 157 54 15
65 -17 146 -129 328 -77 124 -84 134 -161 218 -139 153 -322 220 -489 178z
m-2078 -1358 c6 0 12 -2 12 -3 0 -7 -86 -87 -109 -102 -14 -9 -51 -34 -81 -56
-47 -34 -53 -36 -38 -15 9 14 26 59 38 100 12 41 24 78 27 82 3 5 35 6 72 2
36 -4 72 -8 79 -8z"/>
<path d="M3200 1708 c-25 -4 -52 -9 -62 -11 -40 -8 -117 -67 -142 -109 -47
-80 -55 -126 -52 -297 3 -180 15 -224 77 -294 60 -69 115 -91 229 -92 162 0
230 46 279 188 14 41 16 57 8 58 -7 1 -47 2 -90 3 l-79 2 -19 -39 c-22 -41
-49 -56 -100 -55 -46 1 -63 11 -90 55 -21 34 -24 52 -26 168 -3 149 8 202 47
240 52 49 142 31 171 -35 8 -16 17 -30 21 -31 5 0 37 -1 73 -1 105 0 98 -3 90
39 -28 150 -170 240 -335 211z"/>
<path d="M0 1308 l0 -398 249 0 249 0 3 43 c2 23 3 59 1 80 l-3 37 -153 0
-153 0 0 85 c0 70 3 85 16 85 9 1 71 1 139 1 l123 1 -3 76 -3 77 -33 1 c-18 1
-35 4 -38 7 -3 3 -19 1 -35 -3 -16 -5 -29 -5 -29 -2 0 9 -63 9 -70 1 -3 -3
-19 -2 -37 3 -32 8 -32 8 -31 72 1 51 4 65 17 68 9 2 77 3 153 2 l136 -1 4 26
c1 14 1 51 -2 81 l-5 54 -247 1 -248 0 0 -397z"/>
<path d="M625 1702 c-20 -3 -20 -9 -17 -397 l2 -395 95 0 c92 0 95 1 96 23 4
139 -1 760 -6 765 -7 7 -131 10 -170 4z"/>
<path d="M1140 1694 c-146 -25 -223 -127 -198 -264 18 -96 80 -151 228 -203
127 -44 158 -72 139 -124 -11 -31 -45 -46 -102 -44 -55 1 -132 33 -141 58 -5
13 -12 11 -40 -11 -19 -14 -39 -26 -45 -26 -6 0 -11 -5 -11 -10 0 -6 -11 -16
-25 -22 -33 -15 -32 -28 7 -61 64 -57 140 -82 253 -86 179 -6 289 71 299 208
10 143 -49 211 -230 267 -101 32 -144 63 -144 105 0 47 34 62 150 63 l100 0 0
81 0 80 -86 0 c-48 0 -117 -5 -154 -11z"/>
<path d="M1497 1698 c-10 -5 -14 -71 -8 -144 1 -6 21 -11 49 -12 26 0 53 0 60
-1 9 -1 12 -71 12 -316 l0 -315 95 0 95 0 0 158 0 157 137 0 138 0 0 70 c0 39
-1 75 -2 80 -2 6 -51 9 -129 7 -130 -3 -156 3 -148 36 3 9 6 41 7 71 l2 55
150 0 150 1 0 80 0 79 -298 1 c-164 0 -304 -3 -310 -7z"/>
<path d="M2199 1655 c-3 -172 0 -458 5 -500 14 -103 66 -179 151 -222 68 -35
202 -42 276 -14 98 38 156 104 179 206 9 40 15 351 11 550 l-1 30 -82 -2 c-46
-1 -88 -2 -95 -2 -8 -1 -12 -75 -15 -283 -3 -251 -5 -286 -21 -309 -49 -73
-161 -65 -197 13 -18 39 -20 68 -20 313 l0 270 -95 0 -95 0 -1 -50z"/>
<path d="M3646 1700 c-1 -3 -2 -180 -1 -395 l0 -390 96 -3 96 -3 -1 166 -1
165 25 1 c81 2 201 0 209 -5 4 -3 8 -77 8 -163 l-1 -158 97 -3 97 -3 -2 398
-3 397 -88 1 c-49 0 -91 -3 -94 -9 -3 -5 -6 -73 -5 -152 0 -113 -3 -144 -14
-148 -8 -3 -14 -2 -14 2 0 4 -46 6 -102 6 -57 -1 -105 2 -108 6 -3 4 -5 72 -4
149 0 93 -3 141 -10 142 -43 4 -178 3 -180 -1z"/>
<path d="M4687 1704 c-1 -1 -29 -4 -62 -6 -103 -9 -188 -62 -216 -136 -14 -38
-17 -111 -6 -156 15 -56 86 -126 160 -154 31 -12 82 -32 113 -44 31 -12 65
-30 75 -41 27 -29 24 -71 -5 -90 -24 -16 -93 -23 -133 -13 -29 6 -83 38 -83
48 0 19 -34 5 -95 -39 l-66 -47 35 -34 c20 -18 62 -45 93 -60 53 -24 69 -27
178 -27 114 0 123 2 172 29 61 34 100 85 111 146 9 50 9 48 -1 111 -15 93
-118 166 -287 204 -21 4 -69 37 -74 50 -11 30 -6 62 13 79 15 14 40 18 123 19
l103 2 1 73 c1 40 -3 75 -8 78 -8 5 -136 12 -141 8z"/>
<path d="M2362 717 c-6 -7 -12 -43 -14 -81 -1 -41 -8 -72 -16 -78 -10 -9 -10
-13 -1 -19 7 -4 13 -27 15 -51 1 -23 3 -49 3 -55 1 -7 8 -13 16 -13 11 0 13
12 10 61 -4 54 -2 62 15 66 11 3 20 11 20 18 0 8 -8 11 -20 8 -17 -5 -20 0
-20 33 0 22 4 55 10 74 11 37 0 59 -18 37z"/>
<path d="M3438 663 c-16 -67 -17 -115 -3 -120 12 -4 43 131 37 160 -7 32 -20
17 -34 -40z"/>
<path d="M2125 699 c-10 -15 3 -25 16 -12 7 7 7 13 1 17 -6 3 -14 1 -17 -5z"/>
<path d="M2446 702 c-3 -6 -1 -14 5 -17 15 -10 25 3 12 16 -7 7 -13 7 -17 1z"/>
<path d="M2490 695 c0 -16 16 -20 24 -6 3 5 -1 11 -9 15 -9 3 -15 0 -15 -9z"/>
<path d="M2749 708 c-1 -3 -5 -57 -10 -144 -3 -62 6 -68 54 -35 l43 29 20 -23
c12 -13 30 -22 40 -20 11 2 22 4 27 4 11 1 9 31 -2 31 -6 0 -13 -5 -16 -10 -5
-8 -11 -7 -21 1 -20 16 -17 29 6 29 28 0 42 31 24 54 -24 33 -75 -2 -61 -41 1
-4 -11 -10 -28 -14 -16 -4 -37 -10 -46 -13 -15 -6 -16 2 -12 67 3 47 0 77 -6
82 -6 3 -11 5 -12 3z m151 -109 c0 -5 -7 -9 -15 -9 -9 0 -12 6 -9 15 6 15 24
11 24 -6z"/>
<path d="M3240 700 c-12 -7 -12 -10 3 -16 21 -8 29 -3 19 13 -5 8 -13 9 -22 3z"/>
<path d="M1720 690 c0 -5 7 -10 15 -10 8 0 15 5 15 10 0 6 -7 10 -15 10 -8 0
-15 -4 -15 -10z"/>
<path d="M2035 685 c-22 -8 -41 -15 -41 -15 -1 0 3 -110 5 -137 1 -15 58 -32
84 -25 30 8 12 27 -21 24 -18 -2 -33 1 -33 7 -1 6 -2 17 -3 24 -3 20 13 35 33
30 10 -3 22 0 25 5 8 13 -29 26 -45 17 -7 -5 -9 1 -7 16 2 17 13 26 36 33 18
5 31 14 29 19 -5 17 -19 17 -62 2z"/>
<path d="M2950 690 c0 -5 7 -10 15 -10 8 0 15 5 15 10 0 6 -7 10 -15 10 -8 0
-15 -4 -15 -10z"/>
<path d="M1506 668 c4 -12 6 -52 5 -89 -1 -37 2 -70 7 -73 5 -3 24 10 42 29
46 47 47 97 5 131 -39 31 -69 32 -59 2z m59 -41 c7 -25 -11 -81 -22 -74 -7 4
-8 22 -4 85 2 21 20 13 26 -11z"/>
<path d="M2182 648 c-12 -16 -7 -52 14 -92 13 -28 13 -32 -1 -42 -18 -14 -3
-29 19 -21 23 9 24 42 4 86 -14 31 -16 46 -8 61 8 16 8 20 -3 20 -8 0 -19 -6
-25 -12z"/>
<path d="M1644 632 c-38 -25 -40 -93 -4 -112 25 -13 60 -4 60 15 0 11 -6 12
-24 5 -19 -7 -26 -5 -30 6 -8 22 -8 22 17 26 26 3 37 46 15 59 -16 11 -20 11
-34 1z m26 -33 c0 -5 -7 -9 -15 -9 -9 0 -12 6 -9 15 6 15 24 11 24 -6z"/>
<path d="M1723 632 c-7 -4 -10 -16 -8 -27 2 -11 4 -34 4 -51 1 -19 7 -34 16
-38 14 -5 15 4 13 55 -3 64 -7 72 -25 61z"/>
<path d="M1788 634 c-5 -4 -8 -32 -8 -61 0 -46 3 -54 17 -51 10 2 25 19 35 38
17 36 24 32 30 -19 2 -14 9 -26 17 -29 10 -3 12 5 6 39 -10 65 -15 79 -29 79
-18 0 -36 -21 -37 -44 0 -12 -5 -5 -12 17 -7 22 -15 35 -19 31z"/>
<path d="M2118 635 c-9 -9 1 -97 13 -111 18 -22 28 1 18 44 -4 20 -7 38 -7 41
2 26 -10 40 -24 26z"/>
<path d="M2430 581 c0 -33 5 -63 10 -66 16 -10 50 5 50 21 0 19 10 18 26 -3 7
-10 14 -16 17 -13 8 10 -8 113 -18 117 -6 2 -17 -16 -25 -39 -21 -59 -40 -61
-35 -4 4 36 1 46 -10 46 -12 0 -15 -14 -15 -59z"/>
<path d="M2559 635 c-1 -3 -1 -16 -1 -30 0 -81 3 -95 17 -95 10 0 15 10 15 27
0 14 11 41 25 59 14 18 25 35 25 38 0 12 -24 6 -42 -11 -17 -15 -18 -15 -18 0
0 15 -18 25 -21 12z"/>
<path d="M2949 623 c-2 -43 4 -89 13 -100 18 -23 26 -4 17 42 -5 26 -8 51 -6
57 1 6 -4 13 -10 15 -7 3 -13 -3 -14 -14z"/>
<path d="M3010 526 c0 -98 2 -115 15 -110 11 4 15 21 15 55 0 36 4 49 15 49
24 0 53 38 47 65 -5 30 -18 41 -59 50 l-33 7 0 -116z m60 65 c8 -15 6 -24 -7
-37 -16 -15 -17 -15 -23 2 -8 22 -1 54 11 54 4 0 13 -9 19 -19z"/>
<path d="M3133 634 c-23 -10 -13 -26 12 -22 31 6 31 4 3 -41 -26 -42 -31 -61
-15 -62 7 0 19 -2 27 -3 21 -5 60 11 60 24 0 6 -10 11 -22 10 -38 -3 -40 -1
-20 28 33 45 32 67 -3 69 -16 1 -36 0 -42 -3z"/>
<path d="M3242 632 c-12 -8 -10 -91 3 -112 14 -23 24 4 21 56 -5 62 -6 66 -24
56z"/>
<path d="M3323 616 c-36 -42 -43 -62 -28 -82 12 -16 17 -17 34 -7 11 7 23 9
26 4 10 -16 -4 -83 -21 -102 -16 -18 -16 -19 0 -19 34 0 49 28 51 101 1 38 0
80 -2 93 -7 33 -37 39 -60 12z m17 -45 c-6 -12 -15 -21 -21 -21 -5 0 -2 15 7
33 10 17 19 27 21 20 2 -7 -1 -21 -7 -32z"/>
<path d="M3417 524 c-9 -10 2 -24 18 -24 9 0 12 6 9 15 -6 16 -17 19 -27 9z"/>
</g>
</svg>
